<svg width="444" height="223" viewBox="0 0 444 223" fill="none" xmlns="http://www.w3.org/2000/svg">
<path d="M99.8135 71.7189V167.084C99.8135 167.981 100.164 168.841 100.789 169.475C101.414 170.109 102.261 170.465 103.144 170.465H129.706C130.579 170.449 131.411 170.086 132.022 169.453C132.634 168.821 132.976 167.97 132.976 167.084V67.9669C132.978 67.4818 132.877 67.0019 132.68 66.56C132.483 66.118 132.194 65.7243 131.834 65.4055C131.474 65.0867 131.05 64.8504 130.592 64.7126C130.134 64.5747 129.652 64.5386 129.178 64.6066L102.697 68.3586C101.897 68.4686 101.163 68.87 100.633 69.4881C100.102 70.1063 99.8111 70.899 99.8135 71.7189ZM238.291 71.7189V167.084C238.291 167.981 238.642 168.841 239.267 169.475C239.892 170.109 240.739 170.465 241.622 170.465H268.164C269.047 170.465 269.894 170.109 270.519 169.475C271.144 168.841 271.494 167.981 271.494 167.084V67.9669C271.496 67.4818 271.395 67.0019 271.198 66.56C271.001 66.118 270.713 65.7243 270.352 65.4055C269.992 65.0867 269.569 64.8504 269.11 64.7126C268.652 64.5747 268.17 64.5386 267.697 64.6066L241.155 68.3586C240.358 68.4731 239.629 68.8765 239.103 69.4942C238.577 70.1119 238.288 70.9021 238.291 71.7189ZM376.668 71.7189V167.084C376.668 167.981 377.019 168.841 377.643 169.475C378.268 170.109 379.115 170.465 379.998 170.465H406.54C407.424 170.465 408.271 170.109 408.895 169.475C409.52 168.841 409.871 167.981 409.871 167.084V67.9669C409.873 67.4818 409.772 67.0019 409.575 66.56C409.378 66.118 409.089 65.7243 408.729 65.4055C408.369 65.0867 407.945 64.8504 407.487 64.7126C407.029 64.5747 406.547 64.5386 406.073 64.6066L379.531 68.3586C378.735 68.4731 378.006 68.8765 377.479 69.4942C376.953 70.1119 376.665 70.9021 376.668 71.7189Z" fill="#373373"/>
<path d="M115.653 41.9312C127.059 41.9312 136.306 32.5446 136.306 20.9656C136.306 9.38661 127.059 0 115.653 0C104.247 0 95 9.38661 95 20.9656C95 32.5446 104.247 41.9312 115.653 41.9312Z" fill="#F8AA17"/>
<path d="M254.653 41.9312C266.059 41.9312 275.306 32.5446 275.306 20.9656C275.306 9.38661 266.059 0 254.653 0C243.247 0 234 9.38661 234 20.9656C234 32.5446 243.247 41.9312 254.653 41.9312Z" fill="#2681DB"/>
<path d="M393.653 41.9312C405.059 41.9312 414.306 32.5446 414.306 20.9656C414.306 9.38661 405.059 0 393.653 0C382.247 0 373 9.38661 373 20.9656C373 32.5446 382.247 41.9312 393.653 41.9312Z" fill="#9B44AD"/>
<path d="M224.515 39.1123L197.973 42.8642C197.173 42.9742 196.439 43.3756 195.909 43.9938C195.378 44.6119 195.087 45.4047 195.089 46.2245V166.39C195.096 169.888 194.92 173.384 194.561 176.863C194.293 179.782 193.516 182.63 192.267 185.274C191.155 187.526 189.446 189.418 187.332 190.737C184.729 192.204 181.778 192.917 178.803 192.798C177.445 192.781 176.089 192.692 174.741 192.53L173.035 192.283C169.887 191.623 168.974 193.375 168.75 194.344C168.75 194.798 168.507 195.973 168.507 195.973C167.654 202.157 166.313 211.331 165.684 216.588C165.607 217.094 165.633 217.61 165.76 218.105C165.886 218.601 166.112 219.064 166.422 219.468C166.732 219.872 167.12 220.207 167.562 220.452C168.005 220.698 168.492 220.849 168.994 220.896C170.03 221.082 171.147 221.247 172.487 221.432C175.559 221.829 178.651 222.049 181.747 222.092C191.312 222.092 199.191 220.525 205.162 217.454C210.852 214.614 215.742 210.359 219.377 205.085C222.985 199.586 225.407 193.376 226.485 186.861C227.743 179.62 228.362 172.279 228.333 164.926V42.4519C228.332 41.9665 228.229 41.487 228.029 41.0459C227.83 40.6047 227.539 40.2124 227.177 39.8956C226.814 39.5787 226.389 39.3448 225.93 39.2096C225.471 39.0744 224.988 39.0412 224.515 39.1123ZM363.805 41.8747L337.263 38.9886C336.809 38.9519 336.353 39.0101 335.922 39.1596C335.491 39.3091 335.095 39.5467 334.758 39.8578C334.421 40.1688 334.151 40.5467 333.963 40.9681C333.776 41.3895 333.676 41.8454 333.669 42.3076V166.39C333.675 169.888 333.499 173.384 333.141 176.863C332.873 179.782 332.096 182.63 330.846 185.274C329.741 187.559 328.024 189.481 325.891 190.819C323.288 192.287 320.337 193 317.362 192.881C316.004 192.864 314.648 192.774 313.3 192.613L311.594 192.365C308.447 191.705 307.533 193.458 307.309 194.427C307.309 194.88 307.066 196.055 307.066 196.055C306.213 202.24 304.873 211.414 304.243 216.67C304.166 217.176 304.192 217.693 304.319 218.188C304.446 218.683 304.671 219.147 304.981 219.551C305.291 219.954 305.679 220.289 306.122 220.535C306.564 220.78 307.051 220.931 307.553 220.979C308.589 221.164 309.706 221.329 311.046 221.515C314.118 221.911 317.21 222.132 320.306 222.175C329.871 222.175 337.751 220.608 343.721 217.536C349.411 214.696 354.302 210.441 357.936 205.167C361.544 199.669 363.966 193.458 365.044 186.943C366.303 179.702 366.921 172.362 366.892 165.009V45.2556C366.894 44.4002 366.577 43.5757 366.004 42.9483C365.432 42.3209 364.646 41.9373 363.805 41.8747ZM435.214 51.4224H432.838V57.607H431.396V51.4224H429V50H435.234L435.214 51.4224ZM443.946 57.5245H442.484V52.783L442.281 53.4427L440.616 57.5658H439.397L437.732 53.4427L437.529 52.783V57.5245H436.087V50H437.753L439.783 54.8239L439.946 55.2569L440.108 54.8239L442.139 50H443.804L443.946 57.5245Z" fill="#373373"/>
<path d="M219 86.0001C219 108.091 201.091 126 179 126C156.909 126 139 108.091 139 86.0001C139 63.9087 156.909 46.0001 179 46.0001C201.091 46.0001 219 63.9087 219 86.0001Z" fill="#373373"/>
<path d="M80 89.0001C80 111.091 62.0914 129 40 129C17.9086 129 0 111.091 0 89.0001C0 66.9087 17.9086 49.0001 40 49.0001C62.0914 49.0001 80 66.9087 80 89.0001Z" fill="#373373"/>
<path d="M360 86.0001C360 108.091 342.091 126 320 126C297.909 126 280 108.091 280 86.0001C280 63.9087 297.909 46.0001 320 46.0001C342.091 46.0001 360 63.9087 360 86.0001Z" fill="#373373"/>
<path d="M178.653 106.931C190.059 106.931 199.306 97.5446 199.306 85.9656C199.306 74.3866 190.059 65 178.653 65C167.247 65 158 74.3866 158 85.9656C158 97.5446 167.247 106.931 178.653 106.931Z" fill="#F1454F"/>
<path d="M319.653 106.931C331.059 106.931 340.306 97.5446 340.306 85.9656C340.306 74.3866 331.059 65 319.653 65C308.247 65 299 74.3866 299 85.9656C299 97.5446 308.247 106.931 319.653 106.931Z" fill="#37A864"/>
<path d="M55 53.7416V210.445C55 211.918 55.328 213.331 55.9119 214.373C56.4957 215.415 57.2876 216 58.1133 216H82.9436C83.7594 215.973 84.5368 215.376 85.1083 214.337C85.6799 213.298 86.0001 211.901 86 210.445V47.5764C86.0017 46.7793 85.9072 45.9908 85.723 45.2646C85.5388 44.5384 85.2691 43.8914 84.9324 43.3676C84.5956 42.8438 84.1996 42.4555 83.7713 42.229C83.343 42.0025 82.8924 41.9431 82.4501 42.0549L57.6957 48.2201C56.9476 48.4008 56.2617 49.0604 55.7658 50.0761C55.27 51.0918 54.9978 52.3945 55 53.7416Z" fill="#373373"/>
<path d="M39.6529 109.931C51.0592 109.931 60.3058 100.545 60.3058 88.9656C60.3058 77.3866 51.0592 68 39.6529 68C28.2466 68 19 77.3866 19 88.9656C19 100.545 28.2466 109.931 39.6529 109.931Z" fill="white"/>
<mask id="mask0_103_3" style="mask-type:alpha" maskUnits="userSpaceOnUse" x="141" y="167" width="44" height="55">
<rect width="44" height="55" transform="translate(141 167)" fill="white"/>
</mask>
<g mask="url(#mask0_103_3)">
<path d="M275.185 218.398L272.434 195.227C272.353 194.528 272.059 193.888 271.605 193.425C271.152 192.961 270.571 192.707 269.97 192.709L181.848 192.709C179.283 192.715 175.964 193.022 173.413 192.709C171.272 192.475 169.939 191.336 168 190.245C166.349 189.275 164.961 187.782 163.994 185.937C162.918 183.664 162.395 181.088 162.482 178.491C162.495 177.306 162.56 176.122 162.679 174.945L162.86 173.456C163.344 170.708 162.059 169.91 161.348 169.715C161.016 169.715 160.154 169.502 160.154 169.502C155.619 168.758 148.891 167.587 145.036 167.038C144.665 166.971 144.287 166.993 143.924 167.104C143.56 167.215 143.22 167.412 142.924 167.682C142.628 167.953 142.383 168.292 142.203 168.678C142.022 169.064 141.912 169.489 141.877 169.928C141.741 170.832 141.62 171.807 141.484 172.977C141.193 175.659 141.032 178.358 141 181.061C141 189.412 142.149 196.291 144.401 201.503C146.484 206.471 149.604 210.74 153.472 213.913C157.504 217.063 162.058 219.177 166.836 220.118C172.146 221.217 177.529 221.757 182.921 221.732L272.736 221.732C273.092 221.731 273.444 221.64 273.767 221.466C274.091 221.292 274.378 221.038 274.611 220.722C274.843 220.406 275.015 220.035 275.114 219.634C275.213 219.233 275.237 218.811 275.185 218.398Z" fill="#373373"/>
</g>
<mask id="mask1_103_3" style="mask-type:alpha" maskUnits="userSpaceOnUse" x="280" y="167" width="44" height="55">
<rect width="44" height="55" transform="translate(280 167)" fill="white"/>
</mask>
<g mask="url(#mask1_103_3)">
<path d="M414.185 218.398L411.434 195.227C411.353 194.528 411.059 193.888 410.605 193.425C410.152 192.961 409.571 192.707 408.97 192.709L320.848 192.709C318.283 192.715 314.964 193.022 312.413 192.709C310.272 192.475 308.939 191.336 307 190.245C305.349 189.275 303.961 187.782 302.994 185.937C301.918 183.664 301.395 181.088 301.482 178.491C301.495 177.306 301.56 176.122 301.679 174.945L301.86 173.456C302.344 170.708 301.059 169.91 300.348 169.715C300.016 169.715 299.154 169.502 299.154 169.502C294.619 168.758 287.891 167.587 284.036 167.038C283.665 166.971 283.287 166.993 282.924 167.104C282.56 167.215 282.22 167.412 281.924 167.682C281.628 167.953 281.383 168.292 281.203 168.678C281.022 169.064 280.912 169.489 280.877 169.928C280.741 170.832 280.62 171.807 280.484 172.977C280.193 175.659 280.032 178.358 280 181.061C280 189.412 281.149 196.291 283.401 201.503C285.484 206.471 288.604 210.74 292.472 213.913C296.504 217.063 301.058 219.177 305.836 220.118C311.146 221.217 316.529 221.757 321.921 221.732L411.736 221.732C412.092 221.731 412.444 221.64 412.767 221.466C413.091 221.292 413.378 221.038 413.611 220.722C413.843 220.406 414.015 220.035 414.114 219.634C414.213 219.233 414.237 218.811 414.185 218.398Z" fill="#373373"/>
</g>
</svg>
